/* XPM */
static const char * ct_red_dn_xpm[] = {
"5 23 23 1",
" 	c None",
".	c #3C0000",
"+	c #F6E4E4",
"@	c #E9C0C0",
"#	c #CE7E7E",
"$	c #B74F4F",
"%	c #A93737",
"&	c #A42E2E",
"*	c #A32D2D",
"=	c #A73333",
"-	c #AE3F3F",
";	c #B54B4B",
">	c #BB5757",
",	c #C46969",
"'	c #D28787",
")	c #DA9A9A",
"!	c #E4B3B3",
"~	c #E7BBBB",
"{	c #EECECE",
"]	c #DFA7A7",
"^	c #D58E8E",
"/	c #CB7878",
"(	c #590000",
".....",
"+++++",
"@@@@@",
"#####",
"$$$$$",
"%%%%%",
"&&&&&",
"*****",
"&&&&&",
"=====",
"-----",
";;;;;",
">>>>>",
",,,,,",
"'''''",
")))))",
"!!!!!",
"~~~~~",
"{{{{{",
"]]]]]",
"^^^^^",
"/////",
"((((("};
