/* XPM */
static const char * lt_cyn_dn_xpm[] = {
"5 23 58 1",
" 	c None",
".	c #203C5A",
"+	c #DBF1F8",
"@	c #CEEBF6",
"#	c #A0D5ED",
"$	c #213D5B",
"%	c #C8E9F5",
"&	c #9DD3EC",
"*	c #6BAAD7",
"=	c #D4EEF7",
"-	c #77B6DE",
";	c #5590C4",
">	c #26476A",
",	c #C2E6F4",
"'	c #8AC5E6",
")	c #609ECF",
"!	c #4C83B8",
"~	c #2F5780",
"{	c #538EC2",
"]	c #477CB0",
"^	c #87C3E5",
"/	c #62A1D1",
"(	c #5089BE",
"_	c #497FB3",
":	c #305882",
"<	c #66A5D4",
"[	c #518ABF",
"}	c #315A84",
"|	c #84C1E4",
"1	c #6EADD9",
"2	c #4E86BB",
"3	c #73B2DC",
"4	c #5C9ACC",
"5	c #5B99CB",
"6	c #345E8A",
"7	c #7DBBE1",
"8	c #71B0DB",
"9	c #65A4D3",
"0	c #63A2D2",
"a	c #325C87",
"b	c #7FBDE2",
"c	c #7BBAE0",
"d	c #6FAFDA",
"e	c #82BFE3",
"f	c #284B6F",
"g	c #8FCAE8",
"h	c #92CCE9",
"i	c #27496C",
"j	c #8CC8E7",
"k	c #264769",
"l	c #69A8D6",
"m	c #B7E1F2",
"n	c #619FD0",
"o	c #2C5178",
"p	c #5A97CA",
"q	c #294D72",
"r	c #5D9BCD",
"s	c #28496D",
"    .",
"   .+",
"  .@#",
" $%&*",
"$=&-;",
">,')!",
"~#-{]",
"~^/(_",
":^<[_",
"}|1;_",
"}|1;2",
"}|1;{",
"}|345",
"67890",
"abcdd",
":ceeb",
"f3|gh",
"i1ej&",
"k)l|m",
" :n17",
"  op*",
"   qr",
"    s"};
