/* XPM */
static const char * lt_cyn_up_xpm[] = {
"5 23 78 1",
" 	c None",
".	c #2F3855",
"+	c #3D4961",
"@	c #C7DEEE",
"#	c #3D4861",
"$	c #C3DBED",
"%	c #3E4A63",
"&	c #C2DBED",
"*	c #BCD8EC",
"=	c #C1DAED",
"-	c #B9D7EC",
";	c #BAD7EC",
">	c #B4D5EB",
",	c #3F5366",
"'	c #B7D6EB",
")	c #B0D3EA",
"!	c #B2D4EB",
"~	c #ADD1EA",
"{	c #485A6A",
"]	c #A8CFE9",
"^	c #AAD0E9",
"/	c #A5CEE9",
"(	c #4C5E6B",
"_	c #A3CDE8",
":	c #9FCBE8",
"<	c #A1CCE8",
"[	c #9ECBE8",
"}	c #4A5D6C",
"|	c #99C8E7",
"1	c #96C7E7",
"2	c #97C7E7",
"3	c #445B6C",
"4	c #8FC4E6",
"5	c #8EC3E6",
"6	c #91C5E6",
"7	c #40596C",
"8	c #85BFE4",
"9	c #89C1E5",
"0	c #88C1E5",
"a	c #7CBBE3",
"b	c #80BDE4",
"c	c #72B6E2",
"d	c #73B7E2",
"e	c #78B9E3",
"f	c #79BAE3",
"g	c #3B586A",
"h	c #68B2E0",
"i	c #6BB3E1",
"j	c #70B6E1",
"k	c #37546A",
"l	c #5EADDF",
"m	c #62AFE0",
"n	c #6AB3E1",
"o	c #2B4E66",
"p	c #54A9DE",
"q	c #59ABDE",
"r	c #60AEDF",
"s	c #63B0E0",
"t	c #244862",
"u	c #4AA4DC",
"v	c #51A7DD",
"w	c #57AADE",
"x	c #5BACDF",
"y	c #28435D",
"z	c #40A0DB",
"A	c #48A3DC",
"B	c #4FA7DD",
"C	c #2E497F",
"D	c #379CD9",
"E	c #3F9FDB",
"F	c #47A3DC",
"G	c #4DA6DD",
"H	c #2F4A80",
"I	c #45A2DC",
"J	c #304B83",
"K	c #3E9FDB",
"L	c #2F4A83",
"M	c #364D98",
"    .",
"   +@",
"  #@$",
" %&&*",
"%=-;>",
",')!~",
"{~]^/",
"(_:<[",
"}|1|2",
"34564",
"78890",
"7aabb",
"7cdef",
"ghijc",
"klmhn",
"opqrs",
"tuvwx",
"yzABp",
"CDEFG",
" HDEI",
"  JDK",
"   LD",
"    M"};
