/* XPM */
static const char * lt_gry_dn_xpm[] = {
"5 23 58 1",
" 	c None",
".	c #5A5A5A",
"+	c #F8F8F8",
"@	c #F6F6F6",
"#	c #EDEDED",
"$	c #5B5B5B",
"%	c #F5F5F5",
"&	c #ECECEC",
"*	c #D7D7D7",
"=	c #F7F7F7",
"-	c #DEDEDE",
";	c #C4C4C4",
">	c #6A6A6A",
",	c #F4F4F4",
"'	c #E6E6E6",
")	c #CFCFCF",
"!	c #B9B9B9",
"~	c #808080",
"{	c #DCDCDC",
"]	c #C1C1C1",
"^	c #B4B4B4",
"/	c #E5E5E5",
"(	c #BCBCBC",
"_	c #B3B3B3",
":	c #828282",
"<	c #D0D0D0",
"[	c #BABABA",
"}	c #848484",
"|	c #E4E4E4",
"1	c #D4D4D4",
"2	c #B7B7B7",
"3	c #D6D6D6",
"4	c #BFBFBF",
"5	c #C0C0C0",
"6	c #C2C2C2",
"7	c #DBDBDB",
"8	c #C8C8C8",
"9	c #8A8A8A",
"0	c #E1E1E1",
"a	c #D2D2D2",
"b	c #878787",
"c	c #E2E2E2",
"d	c #E0E0E0",
"e	c #D9D9D9",
"f	c #DADADA",
"g	c #E3E3E3",
"h	c #6F6F6F",
"i	c #E8E8E8",
"j	c #E9E9E9",
"k	c #6C6C6C",
"l	c #E7E7E7",
"m	c #696969",
"n	c #F2F2F2",
"o	c #787878",
"p	c #CACACA",
"q	c #727272",
"r	c #CDCDCD",
"s	c #6D6D6D",
"    .",
"   .+",
"  .@#",
" $%&*",
"$=&-;",
">,')!",
"~#{]^",
"~/)(_",
":/<[^",
"}|1(2",
"}|34(",
"}|*56",
"}|788",
"907a<",
"bcdef",
":dggc",
"h{|ij",
"kegl&",
"m)3|n",
" :<e0",
"  op*",
"   qr",
"    s"};
