/* XPM */
static const char * rt_cyn_up_xpm[] = {
"5 23 78 1",
" 	c None",
".	c #2F3855",
"+	c #C7DEEE",
"@	c #3D4961",
"#	c #C3DBED",
"$	c #3D4861",
"%	c #BCD8EC",
"&	c #C2DBED",
"*	c #3E4A63",
"=	c #B4D5EB",
"-	c #BAD7EC",
";	c #B9D7EC",
">	c #C1DAED",
",	c #ADD1EA",
"'	c #B2D4EB",
")	c #B0D3EA",
"!	c #B7D6EB",
"~	c #3F5366",
"{	c #A5CEE9",
"]	c #AAD0E9",
"^	c #A8CFE9",
"/	c #485A6A",
"(	c #9ECBE8",
"_	c #A1CCE8",
":	c #9FCBE8",
"<	c #A3CDE8",
"[	c #4C5E6B",
"}	c #97C7E7",
"|	c #99C8E7",
"1	c #96C7E7",
"2	c #4A5D6C",
"3	c #8FC4E6",
"4	c #91C5E6",
"5	c #8EC3E6",
"6	c #445B6C",
"7	c #88C1E5",
"8	c #89C1E5",
"9	c #85BFE4",
"0	c #40596C",
"a	c #80BDE4",
"b	c #7CBBE3",
"c	c #79BAE3",
"d	c #78B9E3",
"e	c #73B7E2",
"f	c #72B6E2",
"g	c #70B6E1",
"h	c #6BB3E1",
"i	c #68B2E0",
"j	c #3B586A",
"k	c #6AB3E1",
"l	c #62AFE0",
"m	c #5EADDF",
"n	c #37546A",
"o	c #63B0E0",
"p	c #60AEDF",
"q	c #59ABDE",
"r	c #54A9DE",
"s	c #2B4E66",
"t	c #5BACDF",
"u	c #57AADE",
"v	c #51A7DD",
"w	c #4AA4DC",
"x	c #244862",
"y	c #4FA7DD",
"z	c #48A3DC",
"A	c #40A0DB",
"B	c #28435D",
"C	c #4DA6DD",
"D	c #47A3DC",
"E	c #3F9FDB",
"F	c #379CD9",
"G	c #2E497F",
"H	c #45A2DC",
"I	c #2F4A80",
"J	c #3E9FDB",
"K	c #304B83",
"L	c #2F4A83",
"M	c #364D98",
".    ",
"+@   ",
"#+$  ",
"%&&* ",
"=-;>*",
",')!~",
"{]^,/",
"(_:<[",
"}|1|2",
"34536",
"78990",
"aabb0",
"cdef0",
"fghij",
"kilmn",
"opqrs",
"tuvwx",
"ryzAB",
"CDEFG",
"HEFI ",
"JFK  ",
"FL   ",
"M    "};
