/* XPM */
static const char * rt_grn_up_xpm[] = {
"5 23 44 1",
" 	c None",
".	c #043C00",
"+	c #E8F7E7",
"@	c #E3F5E1",
"#	c #D8F1D6",
"$	c #DDF3DC",
"%	c #D0EECE",
"&	c #D5F0D3",
"*	c #CBECC8",
"=	c #DAF2D9",
"-	c #C3E9C0",
";	c #066000",
">	c #BBE6B8",
",	c #C6EAC3",
"'	c #065B00",
")	c #B4E3B1",
"!	c #B6E4B3",
"~	c #076D00",
"{	c #AADFA7",
"]	c #ADE0A9",
"^	c #AFE1AC",
"/	c #A3DC9F",
"(	c #A5DDA2",
"_	c #9EDA9A",
":	c #95D691",
"<	c #93D58E",
"[	c #076900",
"}	c #8FD38A",
"|	c #88D083",
"1	c #86CF81",
"2	c #84CE7E",
"3	c #7FCC7A",
"4	c #066400",
"5	c #7DCB78",
"6	c #79C973",
"7	c #055800",
"8	c #73C66D",
"9	c #6FC469",
"0	c #77C871",
"a	c #71C56B",
"b	c #69C163",
"c	c #6BC265",
"d	c #65BF5F",
"e	c #63BE5D",
".    ",
"+.   ",
"@+.  ",
"#$+. ",
"%&$+.",
"*%&=.",
"--*%;",
">>-,'",
")!!>~",
"{{]^~",
"//((~",
"____~",
"::<<[",
"}}}|~",
"|1234",
"23567",
"5689.",
"0a9b.",
"9cde.",
"cde. ",
"de.  ",
"e.   ",
".    "};
