/* XPM */
static const char * rt_gry_up_xpm[] = {
"5 23 54 1",
" 	c None",
".	c #5A5A5A",
"+	c #F8F8F8",
"@	c #F6F6F6",
"#	c #F3F3F3",
"$	c #F5F5F5",
"%	c #F0F0F0",
"&	c #F2F2F2",
"*	c #EDEDED",
"=	c #EFEFEF",
"-	c #F1F1F1",
";	c #F4F4F4",
">	c #EAEAEA",
",	c #EBEBEB",
"'	c #717171",
")	c #E7E7E7",
"!	c #E8E8E8",
"~	c #ECECEC",
"{	c #6E6E6E",
"]	c #E4E4E4",
"^	c #E5E5E5",
"/	c #E6E6E6",
"(	c #787878",
"_	c #E1E1E1",
":	c #E2E2E2",
"<	c #E3E3E3",
"[	c #DEDEDE",
"}	c #DFDFDF",
"|	c #DBDBDB",
"1	c #D8D8D8",
"2	c #D7D7D7",
"3	c #767676",
"4	c #D5D5D5",
"5	c #D4D4D4",
"6	c #D2D2D2",
"7	c #D1D1D1",
"8	c #D0D0D0",
"9	c #CECECE",
"0	c #737373",
"a	c #CFCFCF",
"b	c #CCCCCC",
"c	c #CACACA",
"d	c #6C6C6C",
"e	c #C8C8C8",
"f	c #C6C6C6",
"g	c #C9C9C9",
"h	c #C7C7C7",
"i	c #C5C5C5",
"j	c #C2C2C2",
"k	c #C4C4C4",
"l	c #C1C1C1",
"m	c #BFBFBF",
"n	c #C3C3C3",
"o	c #C0C0C0",
".    ",
"+.   ",
"@+.  ",
"#$+. ",
"%&$+.",
"*=-;.",
">,*%'",
")!>~{",
"]^/!(",
"__:<(",
"[[}}(",
"||||(",
"11223",
"4556(",
"67890",
"a9bcd",
"bcef.",
"ghij.",
"fklm.",
"nlm. ",
"om.  ",
"m.   ",
".    "};
