/* XPM */
static const char * rt_gry_dn_xpm[] = {
"5 23 58 1",
" 	c None",
".	c #5A5A5A",
"+	c #F8F8F8",
"@	c #EDEDED",
"#	c #F6F6F6",
"$	c #D7D7D7",
"%	c #ECECEC",
"&	c #F5F5F5",
"*	c #5B5B5B",
"=	c #C4C4C4",
"-	c #DEDEDE",
";	c #F7F7F7",
">	c #B9B9B9",
",	c #CFCFCF",
"'	c #E6E6E6",
")	c #F4F4F4",
"!	c #6A6A6A",
"~	c #B4B4B4",
"{	c #C1C1C1",
"]	c #DCDCDC",
"^	c #808080",
"/	c #B3B3B3",
"(	c #BCBCBC",
"_	c #E5E5E5",
":	c #BABABA",
"<	c #D0D0D0",
"[	c #828282",
"}	c #B7B7B7",
"|	c #D4D4D4",
"1	c #E4E4E4",
"2	c #848484",
"3	c #BFBFBF",
"4	c #D6D6D6",
"5	c #C2C2C2",
"6	c #C0C0C0",
"7	c #C8C8C8",
"8	c #DBDBDB",
"9	c #D2D2D2",
"0	c #E1E1E1",
"a	c #8A8A8A",
"b	c #DADADA",
"c	c #D9D9D9",
"d	c #E0E0E0",
"e	c #E2E2E2",
"f	c #878787",
"g	c #E3E3E3",
"h	c #E9E9E9",
"i	c #E8E8E8",
"j	c #6F6F6F",
"k	c #E7E7E7",
"l	c #6C6C6C",
"m	c #F2F2F2",
"n	c #696969",
"o	c #CACACA",
"p	c #787878",
"q	c #CDCDCD",
"r	c #727272",
"s	c #6D6D6D",
".    ",
"+.   ",
"@#.  ",
"$%&* ",
"=-%;*",
">,')!",
"~{]@^",
"/(,_^",
"~:<_[",
"}(|12",
"(3412",
"56$12",
"77812",
"<980a",
"bcdef",
"eggd[",
"hi1]j",
"%kgcl",
"m14,n",
"0c<[ ",
"$op  ",
"qr   ",
"s    "};
