/* XPM */
static const char * lt_red_dn_xpm[] = {
"5 23 49 1",
" 	c None",
".	c #3C0000",
"+	c #F7E7E7",
"@	c #F5E1E1",
"#	c #ECC8C8",
"$	c #3F0000",
"%	c #F3DCDC",
"&	c #EAC3C3",
"*	c #D58E8E",
"=	c #F6E4E4",
"-	c #DC9F9F",
";	c #C26565",
">	c #540000",
",	c #F2D9D9",
"'	c #E4B3B3",
")	c #CE7E7E",
"!	c #B85151",
"~	c #7E0000",
"{	c #DA9A9A",
"]	c #BF5F5F",
"^	c #B24646",
"/	c #BA5555",
"(	c #B14444",
"_	c #800000",
":	c #820202",
"<	c #E3B1B1",
"[	c #D38A8A",
"}	c #B54B4B",
"|	c #BE5D5D",
"1	c #C16363",
"2	c #C66D6D",
"3	c #890A0A",
"4	c #DFA7A7",
"5	c #D08383",
"6	c #850505",
"7	c #E0A9A9",
"8	c #D89595",
"9	c #E1ACAC",
"0	c #5E0000",
"a	c #E6B8B8",
"b	c #E7BBBB",
"c	c #580000",
"d	c #530000",
"e	c #F0D3D3",
"f	c #6D0000",
"g	c #C97373",
"h	c #640000",
"i	c #CB7878",
"j	c #590000",
"    .",
"   .+",
"  .@#",
" $%&*",
"$=&-;",
">,')!",
"~#{]^",
"~')/(",
"_')!^",
":<[/}",
":<*|/",
":<*]1",
":<{22",
"34{5)",
"67488",
"_4997",
"0{<ab",
"c89a&",
"d)*<e",
" _)84",
"  fg*",
"   hi",
"    j"};
