/* XPM */
static const char * rt_cyn_dn_xpm[] = {
"5 23 58 1",
" 	c None",
".	c #203C5A",
"+	c #DBF1F8",
"@	c #A0D5ED",
"#	c #CEEBF6",
"$	c #6BAAD7",
"%	c #9DD3EC",
"&	c #C8E9F5",
"*	c #213D5B",
"=	c #5590C4",
"-	c #77B6DE",
";	c #D4EEF7",
">	c #4C83B8",
",	c #609ECF",
"'	c #8AC5E6",
")	c #C2E6F4",
"!	c #26476A",
"~	c #477CB0",
"{	c #538EC2",
"]	c #2F5780",
"^	c #497FB3",
"/	c #5089BE",
"(	c #62A1D1",
"_	c #87C3E5",
":	c #518ABF",
"<	c #66A5D4",
"[	c #305882",
"}	c #6EADD9",
"|	c #84C1E4",
"1	c #315A84",
"2	c #4E86BB",
"3	c #5B99CB",
"4	c #5C9ACC",
"5	c #73B2DC",
"6	c #63A2D2",
"7	c #65A4D3",
"8	c #71B0DB",
"9	c #7DBBE1",
"0	c #345E8A",
"a	c #6FAFDA",
"b	c #7BBAE0",
"c	c #7FBDE2",
"d	c #325C87",
"e	c #82BFE3",
"f	c #92CCE9",
"g	c #8FCAE8",
"h	c #284B6F",
"i	c #8CC8E7",
"j	c #27496C",
"k	c #B7E1F2",
"l	c #69A8D6",
"m	c #264769",
"n	c #619FD0",
"o	c #5A97CA",
"p	c #2C5178",
"q	c #5D9BCD",
"r	c #294D72",
"s	c #28496D",
".    ",
"+.   ",
"@#.  ",
"$%&* ",
"=-%;*",
">,')!",
"~{-@]",
"^/(_]",
"^:<_[",
"^=}|1",
"2=}|1",
"{=}|1",
"345|1",
"67890",
"aabcd",
"ceeb[",
"fg|5h",
"%ie}j",
"k|l,m",
"9}n[ ",
"$op  ",
"qr   ",
"s    "};
