/* XPM */
static const char * lt_gry_up_xpm[] = {
"5 23 54 1",
" 	c None",
".	c #5A5A5A",
"+	c #F8F8F8",
"@	c #F6F6F6",
"#	c #F5F5F5",
"$	c #F3F3F3",
"%	c #F2F2F2",
"&	c #F0F0F0",
"*	c #F4F4F4",
"=	c #F1F1F1",
"-	c #EFEFEF",
";	c #EDEDED",
">	c #717171",
",	c #EBEBEB",
"'	c #EAEAEA",
")	c #6E6E6E",
"!	c #ECECEC",
"~	c #E8E8E8",
"{	c #E7E7E7",
"]	c #787878",
"^	c #E6E6E6",
"/	c #E5E5E5",
"(	c #E4E4E4",
"_	c #E3E3E3",
":	c #E2E2E2",
"<	c #E1E1E1",
"[	c #DFDFDF",
"}	c #DEDEDE",
"|	c #DBDBDB",
"1	c #767676",
"2	c #D7D7D7",
"3	c #D8D8D8",
"4	c #D2D2D2",
"5	c #D4D4D4",
"6	c #D5D5D5",
"7	c #737373",
"8	c #CECECE",
"9	c #D0D0D0",
"0	c #D1D1D1",
"a	c #6C6C6C",
"b	c #CACACA",
"c	c #CCCCCC",
"d	c #CFCFCF",
"e	c #C6C6C6",
"f	c #C8C8C8",
"g	c #C2C2C2",
"h	c #C5C5C5",
"i	c #C7C7C7",
"j	c #C9C9C9",
"k	c #BFBFBF",
"l	c #C1C1C1",
"m	c #C4C4C4",
"n	c #C3C3C3",
"o	c #C0C0C0",
"    .",
"   .+",
"  .+@",
" .+#$",
".+#%&",
".*=-;",
">&;,'",
")!'~{",
"]~^/(",
"]_:<<",
"][[}}",
"]||||",
"12233",
"]4556",
"78904",
"abc8d",
".efbc",
".ghij",
".klme",
" .kln",
"  .ko",
"   .k",
"    ."};
