/* XPM */
static const char * ct_cyn_dn_xpm[] = {
"5 23 21 1",
" 	c None",
".	c #203C5A",
"+	c #DBF1F8",
"@	c #A0D5ED",
"#	c #6BAAD7",
"$	c #5590C4",
"%	c #4C83B8",
"&	c #477CB0",
"*	c #497FB3",
"=	c #4E86BB",
"-	c #538EC2",
";	c #5B99CB",
">	c #63A2D2",
",	c #6FAFDA",
"'	c #7FBDE2",
")	c #92CCE9",
"!	c #9DD3EC",
"~	c #B1DBEF",
"{	c #7DBBE1",
"]	c #5D9BCD",
"^	c #28496D",
".....",
"+++++",
"@@@@@",
"#####",
"$$$$$",
"%%%%%",
"&&&&&",
"*****",
"*****",
"*****",
"=====",
"-----",
";;;;;",
">>>>>",
",,,,,",
"'''''",
")))))",
"!!!!!",
"~~~~~",
"{{{{{",
"#####",
"]]]]]",
"^^^^^"};
