/* XPM */
static const char * lt_grn_up_xpm[] = {
"5 23 44 1",
" 	c None",
".	c #043C00",
"+	c #E8F7E7",
"@	c #E3F5E1",
"#	c #DDF3DC",
"$	c #D8F1D6",
"%	c #D5F0D3",
"&	c #D0EECE",
"*	c #DAF2D9",
"=	c #CBECC8",
"-	c #066000",
";	c #C3E9C0",
">	c #065B00",
",	c #C6EAC3",
"'	c #BBE6B8",
")	c #076D00",
"!	c #B6E4B3",
"~	c #B4E3B1",
"{	c #AFE1AC",
"]	c #ADE0A9",
"^	c #AADFA7",
"/	c #A5DDA2",
"(	c #A3DC9F",
"_	c #9EDA9A",
":	c #076900",
"<	c #93D58E",
"[	c #95D691",
"}	c #88D083",
"|	c #8FD38A",
"1	c #066400",
"2	c #7FCC7A",
"3	c #84CE7E",
"4	c #86CF81",
"5	c #055800",
"6	c #79C973",
"7	c #7DCB78",
"8	c #6FC469",
"9	c #73C66D",
"0	c #69C163",
"a	c #71C56B",
"b	c #77C871",
"c	c #63BE5D",
"d	c #65BF5F",
"e	c #6BC265",
"    .",
"   .+",
"  .+@",
" .+#$",
".+#%&",
".*%&=",
"-&=;;",
">,;''",
")'!!~",
"){]^^",
")//((",
")____",
":<<[[",
")}|||",
"1234}",
"56723",
".8967",
".08ab",
".cde8",
" .cde",
"  .cd",
"   .c",
"    ."};
