/* XPM */
static const char * rt_grn_dn_xpm[] = {
"5 23 49 1",
" 	c None",
".	c #043C00",
"+	c #E8F7E7",
"@	c #CBECC8",
"#	c #E3F5E1",
"$	c #93D58E",
"%	c #C6EAC3",
"&	c #DDF3DC",
"*	c #043F00",
"=	c #6BC265",
"-	c #A3DC9F",
";	c #E5F6E4",
">	c #58B851",
",	c #84CE7E",
"'	c #B6E4B3",
")	c #DAF2D9",
"!	c #055400",
"~	c #4DB246",
"{	c #65BF5F",
"]	c #9EDA9A",
"^	c #087E00",
"/	c #4BB144",
"(	c #5CBA55",
"_	c #098000",
":	c #52B54B",
"<	c #8FD38A",
"[	c #B4E3B1",
"}	c #0B8202",
"|	c #63BE5D",
"1	c #69C163",
"2	c #73C66D",
"3	c #88D083",
"4	c #AADFA7",
"5	c #12890A",
"6	c #9AD895",
"7	c #ADE0A9",
"8	c #0E8505",
"9	c #AFE1AC",
"0	c #BEE7BB",
"a	c #BBE6B8",
"b	c #065E00",
"c	c #055800",
"d	c #D5F0D3",
"e	c #055300",
"f	c #79C973",
"g	c #076D00",
"h	c #7DCB78",
"i	c #066400",
"j	c #055900",
".    ",
"+.   ",
"@#.  ",
"$%&* ",
"=-%;*",
">,')!",
"~{]@^",
"/(,'^",
"~>,'_",
":(<[}",
"(|$[}",
"1{$[}",
"22][}",
",3]45",
"66478",
"7994_",
"0a[]b",
"%a96c",
"d[$,e",
"46,_ ",
"$fg  ",
"hi   ",
"j    "};
